<svg id="objects" xmlns="http://www.w3.org/2000/svg" viewBox="0 0 300.5 300.5"><style>.st0{fill:#3598cb}.st1{fill:#fff}.st2{fill:#00b1d2}.st3{fill:#008ea8}.st4{fill:#ccc}.st5{fill:#2a566d}.st6{fill:#eff4f3}.st7{fill:#8aa3bd}.st8{opacity:.2;enable-background:new}</style><title>Vector Smart Object</title><path class="st0" d="M150.2 283.2c-70.4 0-127.7-57.3-127.7-127.7S79.8 27.9 150.2 27.9s127.7 57.3 127.7 127.7-57.3 127.6-127.7 127.6zm0-246.6c-65.6 0-118.9 53.3-118.9 119s53.4 118.9 118.9 118.9 119-53.3 119-118.9-53.4-119-119-119z"/><path class="st0" d="M150.3 32.2c-37.3 0-72.6 16.9-96 46 2.3 2.2 3.3 5.4 2.7 8.6 3.4-1.2 7.1.4 8.5 3.6 1.6-1.7 4.2-1.8 5.9-.2 1.3 1.2 1.7 3 1 4.7h.4c2.8 0 5.3 1.7 6.3 4.2 3.6-1.3 7.5.5 8.8 4.1.2.5.3 1 .4 1.6 7.1-3 14.2-8.3 16.2-9.8-1.5-1-3.2-1.9-4.9-2.7l3.3-3.3c.1-.5.3-1.1.5-1.6-3.9-.5-7.8.3-11.2 2.2 2.3-6.8 8.3-11.7 15.4-12.6 1.5-3 3.2-5.8 5-8.6l-.9-.6c.7-.5 1.4-.9 2.1-1.4l.1.1c1.2-1.6 2.4-3.3 3.8-4.9.9-1.1 1.9-2.2 2.8-3.2.4-.4.8-.9 1.2-1.3.4-.4.8-.8 1.2-1.3l1.3-1.4 1.3-1.2c2.7-2.5 5.6-4.8 8.7-6.8l.6-.4c6.6-4.3 13.3-7 19.4-7.9h.1l1-.1h.2l1-.1h1.4c.1.4.1.8.2 1.2v.2c0 .3.1.7.1 1v.2c0 .4 0 .7.1 1.1v.1c.2 6.2-1.2 13.3-4.3 20.5l-.3.6c-1.7 3.9-3.7 7.6-6 11.2-.3.5-.7 1-1 1.5-.3.5-.7 1-1 1.5-.3.5-.7 1-1.1 1.5-.3.5-.7.9-1.1 1.4-.5.6-1 1.2-1.5 1.9-1.4 1.7-2.8 3.3-4.3 4.8l.2.2c-.3.8-.7 1.6-1 2.4l-.8-.9c-2.3 2.3-4.8 4.4-7.4 6.3.4 7.2-3.4 14-9.7 17.4 1.2-3.7 1.3-7.7.2-11.4l-1.8.9.1.4c-.9 1.3-1.8 2.6-2.7 4-.9-1.6-1.9-3.1-3.1-4.5-2.6 4.1-4.5 8.7-5.5 13.4l.6.3.1.1.6.3h.1l.5.3.1.1c.2.1.3.2.5.4l.1.1c.2.1.3.3.5.4.2.1.3.3.5.4l.1.1c.1.2.3.3.4.5v.1c.1.2.2.3.3.5l.1.1c.1.2.2.3.3.5l.1.1c.1.2.2.3.3.5v.1c.1.2.2.4.2.6l.1.1c.1.2.2.4.2.6.1.2.1.4.2.6v.1c0 .2.1.4.1.6v.1c0 .2 0 .4.1.6v2.6l-.1.3v.2l-.1.3v.1c0 .1-.1.3-.1.4-.1.4-.3.7-.5 1.1l.5.6c3.1.3 5.5 2.7 6 5.7h.1l.2-.1h.1l.3-.2.3-.1h.1l.2-.1h.1l.3-.1.3-.1h.3l.1.1.2.4s0 .6.1.6v-.6s.2-.5.3-.5 0-.1.1-.1h.6l.3.1.4.1.1.1.2.1.1.1.2.2.1.1.3.2.2.2.1.1.2.2.1.1.1.2.1.1c.1.1.1.2.2.3 0 .1.1.2.1.3v.1c0 .1.1.2.1.2v.1c0 .1 0 .2.1.3v1.9c0 .1-.1.3-.1.4-.3.9-.9 1.6-1.7 2.1.2.1.5.1.7.2.7.2 1.4.6 2 1l.3.3.3.2.1.1.2.2.1.1.2.2.4.1.1.2.1.1.1.2.1.2.1.2.1.2.1.2.1.2.1.2.1.2.1.2.1.2.1.2.1.2.1.2v1.2c0 .1-.4.1-.4.2s-.5.1-.5.2v.1h.8s.1 0 .1.1v.9h1.2v-.5l.1-.5h.6c.2 0 .4 0 .6.1l.6.1h.1l.6.2h.3l.4.2c8.9-4.9 17.4-10.4 25.5-16.6l14.1 11.9c-5.7 8.7-9.8 18.4-12.1 28.6.4.2.9.3 1.3.5l.3.1 1.2.6.2.1c.3.2.7.4 1 .6l.2.1c.4.2.7.5 1 .8l.2.2c.3.3.6.5.9.8l.1.1.9.9.2.2c.3.3.6.6.8 1l.1.1c.2.3.5.6.7.9l.2.2c.2.3.5.7.7 1.1l.1.2c.2.3.4.7.5 1l.1.2c.2.4.3.8.5 1.1l.1.3c.2.4.3.8.4 1.2v.1l.3 1.2.1.3c.1.4.2.8.2 1.2v.2c.1.4.1.7.1 1.1v.2c0 .4 0 .8.1 1.3v1.7c0 .3-.1.6-.1.9v.2s-.1.4-.1.6l-.1.3c0 .2-.1.4-.1.6l-.1.3c0 .2-.1.4-.2.6l-.1.3-.3.9c-.2.8-.5 1.5-.9 2.2l1.1 1.3c6.2.7 11.2 5.4 12.2 11.5l.1-.1.1-.1.4-.3.1-.1c.2-.1.4-.2.5-.3l.5-.3.2-.1.4-.2.2-.1.5-.2h.1l.6-.1h.2l.5-.1h.2c.2 0 .3.3.5.3s.1.3.1.3v-.3c.2 0 .4-.1.6-.1l.1-.1h.7l.4.1h.2l.6.2h.1c.3.1.5.2.7.3l.2.1.5.2.2.1.5.3.2.1c.2.2.4.3.6.5l.5.5.2.2.3.4.2.2c.1.1.2.3.3.4l.1.2c.1.2.2.4.4.6v.1l.3.6.1.2c.1.2.1.3.2.5l.1.3c0 .2.1.3.1.5v.2c0 .2.1.5.1.7v1.8c0 .1-.1.4-.1.5 0 .2 0 .2-.1.2-.1.3-.1.5-.2.8-.6 1.8-1.8 3.3-3.4 4.3.5.1 1 .2 1.4.4 1.4.5 2.7 1.2 3.9 2.1.2.2.4.3.7.5.2.2.4.3.6.5l.1.1.4.4.2.2.3.4.2.3.3.3.2.3.2.3.2.3.2.4.2.3.2.4.2.3.2.4.1.3.2.4.1.3c0 .1.1.3.1.4l.1.3c0 .1.1.3.1.4 0 .2.1.2.1.3 0 .1.1.3.1.5s0 .2.1.3c0 .3.1.5.1.8v.8c0 .2-.1.2-.1.4 0 .1-.1.2-.1.3v.2c.7 0 1.4.1 2.1.2.1 0 .4.4.5.4l.1-.4s.1-.2.2-.2c.3 0 .6-.1.9-.1h.2c.4 0 .8.1 1.2.1h.1c.4.1.8.1 1.2.2h.1c.4.1.8.2 1.1.3h.3c6.7 2.3 11.3 8.3 11.6 15.4 54.5-40.8 65.6-118.1 24.8-172.6-24.1-31.3-60.5-49.6-99.1-49.8z"/><path class="st1" d="M209.6 238.3zm1.2.5c-.2-.4-.7-.6-1.2-.5.5-.1 1 .1 1.2.5zm-2.6-.6h-.9c.3-.1.6-.1.9 0zm3.9.9c-.4-.2-.7-.3-1.1-.3.3.1.7.2 1.1.3z"/><path class="st2" d="M202.5 230.9l-.2-.3.2.3zm.7 1.3l-.2-.3.2.3zm-.3-.7l-.2-.3.2.3zm-.8-1.3l-.2-.3.2.3zm-1-1.2l-.2-.2.2.2zm.5.6l-.2-.3.2.3zm2 3.3l-.1-.3.1.3zm.8 3c0-.1 0-.2-.1-.3v.1l.1.2zm.1.9v-.1.1zm.1.9v-.3.3zm-.5-3.3l-.1-.4.1.4zm.2.7c0-.1-.1-.2-.1-.3l.1.3zm-.5-1.5l-.1-.3.1.3z"/><path class="st3" d="M204.6 238.3v-.2.2zm0 0z"/><path class="st1" d="M201.6 229.6l-.2-.3.2.3zm-52.2-46.1l.2.4-.2-.4zm53.1 47.4l-.2-.3.2.3zm-1.6-2.1l.2.2-.2-.2zm2.3 3.4l-.2-.3.2.3zM144 208.3l.3-.2.1-.1-.4.3zm58.9 23.2l-.2-.3.2.3zM149 182.6l.2.4-.2-.4zm-2.5-3.1l.2.2-.2-.2zm1.9 2.3l.2.4-.2-.4zm-.6-.8l.3.3-.3-.3zm-.6-.7l.3.3-.3-.3zm54.9 49.9l-.2-.3.2.3zm7.5 8.1c-.4-.1-.8-.1-1.2-.1.4 0 .8.1 1.2.1zm-1.4-.1H207c.4-.1.8-.1 1.2 0zm-4.6-5.3l-.1-.3.1.3zm1 4.8v-.2.2zm7.5 1.2c-.4-.1-.8-.2-1.1-.3.3.1.7.2 1.1.3zm-1.3-.3c-.4-.1-.8-.2-1.2-.2.4 0 .8.1 1.2.2zm-6.7-4.2l-.1-.3.1.3zm-.3-.8l-.1-.3.1.3zm.6 2.3v-.2.2zm.1.9s0-.1 0 0c0-.2 0-.1 0 0zm-.2-1.7l-.1-.3.1.3zm-52.6-45.4c0 .1 0 .3.1.4-.1-.1-.1-.3-.1-.4zm-.7 9l-.2.5.2-.5zm-.3.8l-.2.5.2-.5zm-.3.9l-.2.5.2-.5zm.9-2.6l-.1.5.1-.5zm.2-.9c0 .2-.1.3-.1.5 0-.2 0-.3.1-.5zm-1.5 4.3l-.2.5.2-.5zm-.9 1.6l-.3.5.3-.5zm-1.1 1.5l-.4.5.4-.5zm0 6.6l.6.6-.6-.6zm3.6-14.9c0 .2-.1.3-.1.5.1-.2.1-.3.1-.5zm-2 6l-.3.5.3-.5zm-1 1.6l-.3.5.3-.5zm3.3-10.7v-.3.3zm-.6-5l.1.4-.1-.4zm-.3-1l.1.4-.1-.4zm.5 1.9c0 .1.1.3.1.4-.1-.1-.1-.3-.1-.4zm48.9 39.4l.1.1-.1-.1zm-49.7-42.1l.2.4-.2-.4zm-.4-.9l.2.4-.2-.4zm-.4-.9l.2.4-.2-.4zm2 9.1zm0 .9v.5c-.1-.2-.1-.4 0-.5zm0-2.7zm-.1 3.5c0 .2 0 .3-.1.5 0-.2.1-.3.1-.5zm0-4.5zm33.4 19.4l.5-.3-.5.3zm-12.7-19.9zm26.6 37c.2.2.4.3.7.5-.2-.1-.5-.3-.7-.5zm-50.3-15.4l.4.5-.4-.5zm23.3-26.1c.1.4.2.8.2 1.2-.1-.4-.1-.8-.2-1.2zm.2 1.4c.1.4.1.7.1 1.1 0-.3 0-.7-.1-1.1zm.1 5.1zm-.7-8l.3 1.2-.3-1.2zm12.4 26.6l.4-.3-.4.3zM172.2 193l-.1.3.1-.3zm12.4 17.4c.2-.1.4-.2.5-.3-.1 0-.3.2-.5.3zm-12.5-16.5l-.1.3.1-.3zm-.3.9l-.1.3.1-.3zm.7-3.6c0 .1 0 0 0 0zm-9.6-18c.3.2.7.4 1 .6-.4-.2-.7-.4-1-.6zm1.2.7c.4.2.7.5 1 .8-.3-.3-.7-.5-1-.8zm1.2.9c.3.3.6.5.9.8-.2-.2-.6-.5-.9-.8zm5.9 8.1c.2.4.3.8.4 1.2-.1-.5-.2-.9-.4-1.2zm-4.9-7.2l.9.9c-.3-.3-.6-.7-.9-.9zm-4.8-3.2l1.2.6-1.2-.6zm-1.5-.7c.4.2.9.3 1.3.5-.5-.1-.9-.3-1.3-.5zm10 8.5c.2.3.4.7.5 1-.1-.4-.3-.7-.5-1zm.6 1.1c.2.4.3.8.5 1.1-.1-.3-.3-.7-.5-1.1zm-3.2-4.6c.3.3.6.6.8 1-.2-.4-.5-.7-.8-1zm1.8 2.2c.2.3.5.7.7 1.1-.2-.4-.5-.8-.7-1.1zm-.9-1.1c.2.3.5.6.7.9-.2-.3-.4-.6-.7-.9zm4.2 10.5c0 .4 0 .8.1 1.3-.1-.5-.1-.9-.1-1.3zm23.7 24.6l.1.2-.1-.2zm.5.8zm.5 1.4l.1.3-.1-.3zm-.2-.7l.1.2-.1-.2zm-1.3-2.2l.2.2-.2-.2zm-.4-.5l.2.2-.2-.2zm-.6-.6zm2.7 8.1c0 .1 0 .2-.1.2.1-.1.1-.1.1-.2zm.1-.8zm0-1.6zm.1.8zm-.2-1.7zm-4.8-6.2l.2.1-.2-.1zm-4.8-.6l.5-.1-.5.1zm.7-.1h.5-.5zm-2 .4l.5-.2-.5.2zm2.6-.4h.6-.6zm-2 .2l.6-.1-.6.1zm6.8 1.3l.2.1-.2-.1zm-.6-.4l.2.1-.2-.1zm-3.4-1.1l.5.1-.5-.1zm-4 .6l.4-.2-.4.2zm4.7-.5l.4.1-.4-.1zm.6.2l.6.2-.6-.2zm-43.7-4.3c-.2.2-.4.5-.6.7.1-.2.4-.5.6-.7zm9.6 19.7zm4.6 11.7c-.1.1-.2.3-.2.4 0-.1.1-.3.2-.4zm-5.4-11.9h.2-.2zm-1.6-.3zm7.3 11.4c-.1.1-.1.3-.2.4 0-.1.1-.2.2-.4zm-4.3-10.6l.2.1-.2-.1zm4.5 9.9c0 .1-.1.3-.1.4 0-.2.1-.3.1-.4zm-.9 2.2c-.1.2-.2.3-.3.5.1-.2.2-.4.3-.5zm-1.2 19.9c-.1.3-.2.6-.4.9.2-.3.3-.6.4-.9zm-7.8-34.3c0 .2-.1.4-.1.6.1-.3.1-.5.1-.6zm.1-1.8zm5 22c.2.2.4.5.6.8-.1-.3-.3-.6-.6-.8zm.7.8zm-5.7-23.7zm8.4 17.8c-.2.2-.3.4-.5.6.2-.2.3-.4.5-.6zm-8.4-16zm4.2 20.2l.7.7c-.2-.3-.5-.5-.7-.7zm5.9-8.7zm-.7-4c.1.1.1.2.1.4 0-.2-.1-.3-.1-.4zm.7 3.4v-.2.2zm-1.5 19.4v-.4.4zm-.5 3.9c-.1.3-.2.5-.3.8.1-.3.2-.6.3-.8zm.4-5.4c0 .3.1.6.1.9-.1-.2-.1-.6-.1-.9zm.1 2.2c0 .3 0 .6-.1.9 0-.3.1-.6.1-.9zm1.3-21.9c0 .1 0 .2.1.4 0-.2-.1-.3-.1-.4zm-.2-.9c0 .1.1.2.1.4 0-.1-.1-.2-.1-.4zm-.7-1.5c.1.1.1.2.2.3-.1-.1-.1-.2-.2-.3zm1 5.6c0 .1-.1.3-.1.4 0-.1.1-.3.1-.4zm-3.3-8.2l.1.1-.1-.1zm1.6 29c-.1.3-.1.6-.2.9.1-.3.2-.6.2-.9zm-2.2-29.4zm-6.2-6.4c0 .2.1.4.1.6 0-.2-.1-.4-.1-.6zm8.6 8.7c.1.1.1.2.2.3 0-.1-.1-.2-.2-.3zm-.5-.7l.2.2-.2-.2zm.5 26.8c0 .3-.1.5-.1.8 0-.3 0-.5.1-.8zm-8.7-30.3c-.1.3-.1.6-.2.9 0-.4.1-.6.2-.9zm-1.3-8.9l.3.6-.3-.6zm.8 1.7c.1.2.1.4.2.6-.1-.2-.2-.4-.2-.6zm10.8 15.3zm9.6 42.9v-.2.2zm-20.8-59.2c.1.2.2.5.3.8-.1-.2-.2-.5-.3-.8zm-1.4-2.4c.2.2.3.5.5.7-.2-.3-.3-.5-.5-.7zm10.9 36.6c0 .3.1.5.1.8 0-.2-.1-.5-.1-.8zm-1.5-4c.1.3.3.5.4.8-.1-.3-.2-.6-.4-.8zm-7.4-28.3c.1.2.1.4.1.6 0-.2 0-.4-.1-.6zm-2.5-5c.2.2.3.4.4.6-.1-.2-.2-.4-.4-.6zm11.1 36.2c.1.3.2.6.2.9 0-.3-.1-.6-.2-.9zm-.3-1c.1.3.2.5.2.8 0-.2-.1-.5-.2-.8zm-9.7-33.6c.1.2.2.3.3.5-.1-.2-.2-.3-.3-.5zm9.3 32.6c.1.3.2.6.4.9-.2-.3-.2-.6-.4-.9zm-1-1.9c.2.3.3.5.5.8-.1-.2-.3-.5-.5-.8zm-6.7-26.5c.1.3.1.5.1.8 0-.3 0-.5-.1-.8zm55.2 19.9z"/><path class="st4" d="M197.6 217.6v-.5.5zm-27.1-36.3l.1.2-.1-.2zm1.8 11.1c0 .2-.1.4-.1.6.1-.2.1-.4.1-.6zm25 23.1c0 .2.1.3.1.5 0-.2-.1-.4-.1-.5zM169 178.8l.2.2-.2-.2zm.9 1.3l.1.2-.1-.2zm2.3 13.2c0 .2-.1.4-.1.6 0-.2.1-.4.1-.6zm-3.9-15.6l.1.1-.1-.1zm29.2 38.5c0 .2.1.5.1.7-.1-.2-.1-.5-.1-.7zm7 20.7v.5c.1-.1 0-.3 0-.5zm-4-8.6l.4.4-.4-.4zm-3.2-8.8c-.1.3-.1.5-.2.8.1-.3.2-.5.2-.8zm-26.2-36.9l.1.3-.1-.3zm1.4 7.8zm27.3 37.3c.2.2.4.3.6.5-.2-.2-.4-.4-.6-.5zm-27.3-39.6zm40 50.9h-.3.3zm-1.7-.4h.1-.1zm-1.2-.3zm-12.1-19.5c0 .2-.1.4-.1.5 0-.2.1-.4.1-.5zm-25-29v-.1.1zm24.6 24.9c.1.2.1.3.2.5-.1-.2-.2-.3-.2-.5zm-34.4-41.6l.2.1-.2-.1zm8.9 10.9zm26 34v.5c-.1-.2-.1-.4 0-.5zm9.4 20.1zm-2.4 0v-.3.3zM172 185.3l.1.3-.1-.3zm-10.8-12.9l.3.1-.3-.1zm11.3 18.9c0 .3-.1.6-.1.9 0-.4.1-.6.1-.9zm-.2-4.5zm21.2 23.5l.5.3-.5-.3zm-7.7-.5l.2-.1-.2.1zm6-.3c.3.1.5.2.7.3-.2-.1-.4-.2-.7-.3zm0 0zm10.3 20.7l.2.3-.2-.3zM191 209.3h.2-.2zm-23.8-32.7l.2.2-.2-.2zm20.5 32.6h.2-.2zm-2.5.9zm7.6-.2l.5.2-.5-.2zm10.8 23l.2.4-.2-.4zM187 209.3zm1.3-.2h.2-.2zm14.6 22.4l.2.4-.2-.4zm-.4-.6l.2.4-.2-.4zm-16.2-21.3l.2-.1-.2.1zm2.8-.5zm14.1 23.1l.2.4-.2-.4zm-12.8-23h.2-.2zm-.7-.1h.1-.1zm18.5 29.1h.2-.2zm-7.1-9.2l.3.4-.3-.4zm-36-54.3l.2.2-.2-.2zm6.7 20.3l-.3.9.3-.9zm24.5 18.2c.1.2.2.4.4.6-.1-.2-.2-.4-.4-.6zm-32.4-39.4l.2.1-.2-.1zm39.9 59.8c0 .1.1.3.1.4 0-.1 0-.2-.1-.4zM172 194.2c0 .2-.1.4-.2.6.1-.2.2-.4.2-.6zm-5.7-18.6zm30.4 38.3l.3.6-.3-.6zm7.7 22c0 .3.1.5.1.8 0-.3-.1-.6-.1-.8zm-9.6-24.6l.5.5-.5-.5zm9.3 23.1c0 .1.1.3.1.4-.1-.1-.1-.3-.1-.4zm-10-23.6c.2.2.4.3.6.5-.2-.2-.4-.4-.6-.5zm7.5 18.8l.3.3-.3-.3zm-6.2-17.7l.3.4-.3-.4zm-10.9-1.5l.1-.1-.1.1zm-.5.4l-.1.1.2-.2-.1.1zm20.3 24.3c0 .2.1.3.1.5-.1-.1-.1-.3-.1-.5zm-8.4-22.6c.1.1.2.3.3.4-.1-.1-.2-.2-.3-.4zm15 26.1h-.1.1zm1.6.4l-.4-.1.4.1zm-4.1-.8h-.2.2zm1.2.1zm-47.1-6.1zm-3.2 13.3l.1.1-.1-.1zm.4.9l.1.2-.1-.2zm-1.6-2.7zm.6.8l.1.2-.1-.2zm2 5v.2-.2zm-.5-2v.1-.1zm.3 1l.1.2-.1-.2zm1.6-13.2c0 .1-.1.2-.1.4 0-.1.1-.2.1-.4zm.2-.7c0 .1-.1.2-.1.4.1-.2.1-.3.1-.4zm.2-1.6zm-5.2 9.8l.2.2-.2-.2zm5.1-9c0 .1 0 .2-.1.4.1-.1.1-.3.1-.4zm-1.5 3.8l-.2.2.2-.2zm.9-1.5c0 .1-.1.2-.1.3 0 0 .1-.2.1-.3zm-.4.8c-.1.1-.1.2-.2.3.1-.1.2-.2.2-.3zm-10.2-21.5l.1.2-.1-.2zm.7-21.6zm-.1.9zm.5 24.3zm-1.5-32.5l.2.5-.2-.5zm1.3 31.5l.1.2-.1-.2zm-.5-21.5l-.1.4.1-.4zm.1-.9c0 .1 0 .3-.1.4.1-.1.1-.2.1-.4zm.2-3.6zm-.8-4.6l.1.5-.1-.5zm1.3 34.1zm-1-33.2c0 .2.1.3.1.5-.1-.2-.1-.4-.1-.5zm.2.9c0 .2.1.3.1.5-.1-.2-.1-.3-.1-.5zm.3 27.9l.1.3-.1-.3zm.5 3.6zm-.6-29.6v.5c.1-.2 0-.4 0-.5zm.6 28.7zm-.7-29.7c0 .2 0 .3.1.5 0-.1-.1-.3-.1-.5zm.2 2.8zm-3.6 11.1l-.2.3.2-.3zm2.1 9.8l.1.2-.1-.2zm-1.6-10.5l-.2.3.2-.3zm-1.2 1.5l-.2.2.2-.2zm2.2 8.2l.1.1-.1-.1zm-1.2-1.5l.2.2-.2-.2zm.7-9l-.2.4.2-.4zm5.4 21.8c-.9-.1-1.9 0-2.8.2.7-.2 1.4-.3 2.1-.3.3.1.5.1.7.1zm-3.9-25.2l-.1.4.1-.4zm.8 17.2l.1.2-.1-.2zm-.2-18.9l-.1.4.1-.4zm-.3.9l-.1.4.1-.4zm-1.3 3.4l-.2.4.2-.4zm.7-1.7l-.2.4.2-.4zm.3 14.5l.1.3-.1-.3zm-.6-13.7l-.2.4.2-.4zm10.3 55.1v.1-.1zm.3-1.1v.2-.2zm-1-28.3l.6.6c-.2-.1-.4-.4-.6-.6zm-10.6-14.3l.2.2-.2-.2zm11.4 15.2c.1.1.2.3.3.4 0-.1-.2-.2-.3-.4zm-1.4-1.3c.2.2.4.3.6.5-.2-.2-.4-.4-.6-.5zm-.7-.5c.2.1.4.3.6.4-.2-.2-.4-.3-.6-.4zm2.4 28.2v.2-.2zm1.5-22.5c0 .2.1.3.1.5-.1-.2-.1-.3-.1-.5zm-.8-2.4c.1.1.1.3.2.4-.1-.1-.1-.2-.2-.4zm-.7 21.6v.2-.2zm1.3-20c0 .2.1.3.1.4 0-.1-.1-.2-.1-.4zm-.3-.8c.1.1.1.3.2.4 0-.1-.1-.2-.2-.4zm-.9 23zm.2-24.5c.1.1.2.3.3.4-.2-.1-.2-.3-.3-.4zm-3.3-3l.6.3-.6-.3zm3.1 26.5zm-13.5-71.1l.4.5-.4-.5zm1.2 1.6l.3.4-.3-.4zm1 1.7l.2.5-.2-.5zm-1.6-2.5l.3.4-.3-.4zm12.1 75.5l-.1.2.1-.2zm-11-73.9l.3.5-.3-.5zm1.3 2.6l.2.5-.2-.5zm-.4-.9l.2.5-.2-.5zm2.1 38.6c0 .1 0 .2-.1.3.1-.1.1-.2.1-.3zm2.7 1c.5 0 .9.1 1.4.3-.5-.1-.9-.2-1.4-.3zm-9.4-17.2l-.2.1.2-.1zm11.6 17.8l.6.3c-.2-.2-.4-.3-.6-.3zm-12.2-17.3l-.3.2.3-.2zm.9-28.8l.7.7-.7-.7zm10.6 45.8c.2.1.5.1.7.2-.2 0-.5-.1-.7-.2zm-4-2.2v.4c-.1-.2-.1-.3 0-.4zm-5.6-42.6l.5.5-.5-.5zm57.2 54.3c0-.1-.1-.3-.1-.4 0 .1 0 .2.1.4z"/><path class="st4" d="M204.4 235.7v-.1c0-.2-.1-.3-.1-.5 0 .2.1.4.1.6zm-1.3-3.8l-.2-.4.2.4zm-.4-.7l-.2-.4.2.4zm1.8 5.5c0-.3 0-.5-.1-.8 0 .2.1.5.1.8zm-.8-3.4l-.2-.4.2.4zm-.3-.7l-.2-.4.2.4zm.8 2.3c0-.1-.1-.3-.1-.4 0 0 0 .2.1.4zm.4 2.5v-.7c-.1.3 0 .5 0 .7zm0 .9v-.6.6zm-2.3-7.7l-.2-.3.2.3zm-.4-.7l-.3-.3.3.3zm-.5-.6l-.3-.4.3.4z"/><path class="st4" d="M212.5 239l-.4-.1c-.4-.1-.8-.2-1.1-.3h-.1c-.4-.1-.8-.2-1.2-.2h-.1c-.4-.1-.8-.1-1.2-.1h-1.3c-.2 0-.4.3-.5.3-.7 0-1.3.5-2 .5v-1.3c0-.2 0-.5-.1-.8v-.1c0-.3-.1-.5-.1-.8v-.2c0-.2-.1-.4-.1-.6l-.1-.3c0-.2-.1-.3-.1-.5l-.1-.3c0-.1-.1-.3-.1-.4l-.1-.3-.2-.4-.1-.3-.2-.4-.2-.3-.2-.4-.2-.3-.2-.4-.2-.3-.2-.3-.2-.3-.3-.3-.2-.3-.3-.4-.2-.2-.4-.4-.1-.1c-.2-.2-.4-.4-.6-.5s-.4-.3-.7-.5c-1.2-.9-2.5-1.6-3.9-2.1-.5-.2-.9-.3-1.4-.4 1.6-1 2.7-2.6 3.4-4.3.1-.3.2-.5.2-.8 0-.1 0-.2.1-.2.1-.1.1-.4.1-.5v-1.8c0-.2-.1-.5-.1-.7v-.2c0-.1-.1-.3-.1-.5l-.1-.3c0-.2-.1-.3-.2-.5l-.1-.2-.3-.6v-.1c-.1-.2-.2-.4-.4-.6l-.1-.2c-.1-.2-.2-.3-.3-.4l-.2-.2-.3-.4-.2-.2-.5-.5c-.2-.2-.4-.3-.6-.5l-.2-.1-.5-.3-.2-.1-.5-.2-.2-.1c-.2-.1-.5-.2-.7-.3h-.1l-.6-.2h-.2l-.4-.1h-.2l-.5-.1h-1.6l-.5.1h-.2l-.6.1h-.1l-.5.2-.2.1-.4.2-.2.1-.5.3c-.2.1-.4.2-.5.3l-.1.1-.4.3v-.5c-1-6.1-6-10.9-12.2-11.5l-1.2-1.4c.3-.7.6-1.5.9-2.2l.3-.9.1-.3c.1-.2.1-.4.2-.6l.1-.3c0-.2.1-.4.1-.6l.1-.3c0-.2.1-.4.1-.6v-.2c0-.3.1-.6.1-.9v-1.7c0-.4 0-.9-.1-1.3v-.2c0-.4-.1-.8-.1-1.1v-.2c-.1-.4-.1-.8-.2-1.2l-.1-.3-.3-1.2c-.1-.4-.3-.8-.4-1.2l-.1-.3c-.2-.4-.3-.8-.5-1.1l-.1-.2c-.2-.3-.4-.7-.5-1l-.1-.2c-.2-.4-.4-.7-.7-1.1l-.2-.2c-.2-.3-.5-.6-.7-.9l-.1-.1c-.3-.3-.5-.6-.8-1l-.2-.2-.9-.9-.1-.1c-.3-.3-.6-.5-.9-.8l-.2-.2c-.3-.3-.7-.5-1-.8l-.2-.1c-.3-.2-.7-.4-1-.6l-.2-.1-1.2-.6-.3-.1c-.4-.2-.8-.4-1.3-.5 2.3-10.2 6.4-19.9 12.1-28.6L165 137c-7.3 10.9-13.3 22.5-18 34.7-.8 1.9-1.5 3.9-2.2 6l.5.5c.2.2.4.3.6.5l.7.7.2.2.5.5.3.3.4.5.3.3.3.4.2.4.3.4.2.4.3.5.2.4.2.5.2.4.3.5.2.4.2.5.2.4.2.5.1.4.1.5.1.4c0 .2.1.3.1.5s.1.3.1.4c0 .2.1.3.1.5s0 .3.1.4 0 .3.1.5 0 .3 0 .4v4.1c0 .1 0 .3-.1.5s0 .3-.1.4-.1.3-.1.5l-.1.4c0 .2-.1.3-.1.5l-.1.4-.1.5-.1.4-.2.5-.1.4-.2.5-.2.4-.2.5-.2.4-.2.5-.2.4-.3.5-.2.4-.3.5-.2.3-.3.5-.2.3-.4.5-.2.2c-.2.2-.4.5-.6.7l-.6.6-.2.2-.4.4-.3.2-.4.3-.3.2-.2.2-.3.2c1.5.6 2.8 1.5 4 2.6l.6.6.2.2.4.5.2.2c.2.2.3.4.4.6l.1.1c.2.2.3.5.5.7l.1.2c.1.2.2.3.3.5l.1.3.3.6.1.2c.1.2.2.5.3.8l.1.2c.1.2.1.4.2.6l.1.3c.1.2.1.4.1.6l.1.2c.1.3.1.5.1.8v.2c0 .2.1.4.1.6v2.9c0 .1-.1.4-.1.6 0 .2 0 .2-.1.3-.1.3-.1.6-.2.9.9-.2 1.8-.3 2.8-.2h.1c.5 0 .9.1 1.4.3h.2c.2.1.5.1.7.2l.6.3.2.1.6.3c.2.1.4.3.6.4l.1.1c.2.2.4.3.6.5l.6.6.2.2c.1.1.2.3.3.4.1.2.1.2.2.3.1.1.2.3.3.4.1.1.1.2.2.3.1.1.1.3.2.4s.1.2.1.4c0 .1.1.3.2.4 0 .2.1.2.1.4 0 .1.1.3.1.4 0 .2 0 .2.1.4 0 .1.1.3.1.5v2.1c0 .1 0 .2-.1.4-.1.1-.1.3-.1.4 0 .1-.1.2-.1.4 0 .1-.1.3-.1.4s-.1.2-.1.4c0 .1-.1.3-.2.4-.1.1-.1.2-.1.3-.1.1-.2.3-.2.4-.1.1-.1.2-.2.3-.1.1-.2.3-.3.5l-.2.2c-1.3 1.7-3.2 2.9-5.4 3.2.4.3.8.6 1.1.9l.7.7.2.2c.2.2.4.5.6.8v.1c.2.2.4.5.5.8l.1.2c.2.3.3.5.5.8l.1.1c.1.3.3.5.4.8l.1.2c.1.3.2.6.4.9v.1c.1.3.2.5.2.8l.1.2c.1.3.2.6.2.9v.2c0 .3.1.5.1.8v.2c0 .3.1.6.1.9v1.2c0 .3 0 .6-.1.9v.2c0 .3-.1.5-.1.8v.2c-.1.3-.1.6-.2.9v.1c-.1.3-.2.5-.3.8l-.1.2c-.1.3-.2.6-.4.9 2.6.7 4.9 2.1 6.9 3.9l.6.6.2.2.4.4.2.2.3.4.2.3.3.4.2.3.3.4.2.3.2.4.2.3.2.4.2.3.2.4.1.3.2.5.1.2c.1.2.2.5.3.7l.1.2c.1.2.1.4.2.6l.1.3c0 .2.1.3.1.5l.1.3c0 .2.1.3.1.4s0 .2.1.3c.1.1 0 .3.1.4v4.3c0 .1-.1.4-.1.7 18.9-3.3 36.8-11.1 52.1-22.6-.8-7-5.4-13-12-15.3zm-5.5-.9z"/><path class="st1" d="M144.5 207.9l-.5.3.5-.3zm.1 0l.3-.2-.3.2zm1.4-1.3l.2-.2-.2.2zm-.5.5l-.2.1-.1.1.3-.2z"/><path class="st4" d="M144.9 207.6l.5-.4.1-.1c-.3.3-.6.5-.9.8l.1-.1.2-.2zm1.9-1.8l-.6.6.6-.6zm-.8.9l-.4.4.4-.4zm-1.6 1.3l.2-.2-.1.1-.1.1zm.9-.7l-.4.3.4-.3zm.9-.9l-.2.2.2-.2zm-.7.7l-.1.1.1-.1zm-1 .8l.1-.1-.1.1z"/><path class="st4" d="M144.9 207.6l.4-.3.1-.1-.5.4zm1.3-1.2l.6-.6-.6.6zm-.7.7l.4-.4-.4.4z"/><path class="st0" d="M61.1 112.1c0 1.2-.1 2.5-.4 3.7 6.8-2.4 14.3.8 17.3 7.3 3.2-3.4 8.6-3.6 12-.4 2.6 2.4 3.4 6.1 2.1 9.4h.8c5.6 0 10.7 3.4 12.8 8.6 7.2-2.6 15.2 1 17.8 8.2.4 1 .6 2.1.8 3.2 2.8-1.2 5.6-2.6 8.3-4l-.4-.2h-.3l-.6-.2h-.1l-.6-.1-.6-.1h-.5l-.1.5v.5h-1.3v-.9s0-.1-.1-.1h-.8v-.1c0-.1.5-.1.5-.2s.2-.1.2-.2.1-.2.1-.2c0-.1.1-.1 0-.1s0-.2 0-.4v-.5c0-.1 0-.1-.1-.2l-.1-.2-.1-.2-.1-.2-.1-.2-.1-.2-.1-.2-.1-.2-.1-.2-.1-.2-.1-.2-.1-.2-.1-.2-.1-.1-.2-.2-.1-.1-.2-.2-.1-.1-.2-.2-.1-.1-.3-.2-.3-.3c-.6-.4-1.2-.8-2-1-.2-.1-.5-.1-.7-.2.8-.5 1.4-1.3 1.7-2.1 0-.1.1-.3.1-.4v-1.9c0-.1 0-.2-.1-.3v.2c0-.1-.1-.2-.1-.2v-.1c0-.1-.1-.2-.1-.3-.1-.1-.1-.2-.2-.3l-.1-.1-.1-.2-.1-.1-.2-.2-.1-.1-.2-.2-.3-.2-.1-.1-.2-.2-.1-.1-.2-.1-.1-.1-.4-.1-.3-.1h-.4.2c-.1 0-.2.6-.3.6s0 .6 0 .6 0-.6-.1-.6-.2-.3-.2-.3c-.1 0-.1-.2-.1-.2l-.2-.1h-.4l-.3.1h-.1l-.2.1h-.1l-.3.1-.3.2h-.1l-.2.1h-.1c-.5-3-3-5.4-6-5.7l-.5-.6c.2-.4.3-.7.5-1.1 0-.1.1-.3.1-.4v-.1l.1-.3v-.2l.1-.3v-2.4c0-.2 0-.4-.1-.6v-.1c0-.2-.1-.4-.1-.6v-.1c0-.2-.1-.4-.2-.6-.1-.2-.1-.4-.2-.6l-.1-.1c-.1-.2-.2-.4-.2-.6v-.1c-.1-.2-.2-.3-.3-.5l-.1-.1c-.1-.2-.2-.4-.3-.5l-.1-.1c-.1-.2-.2-.3-.3-.5v-.1c-.1-.2-.3-.3-.4-.5l-.1-.1c-.2-.2-.3-.3-.5-.4-.2-.1-.3-.3-.5-.4l.2-.1c-.2-.1-.3-.3-.5-.4l-.1-.1-.5-.3h-.1l-.6-.3-.1-.1-.6-.3c1.1-4.8 2.9-9.3 5.5-13.4 1.2 1.4 2.2 2.9 3.1 4.5.9-1.3 1.8-2.6 2.7-4l-.4-.2 1.8-.9c1.1 3.7 1.1 7.7-.2 11.4 6.3-3.5 10.1-10.2 9.7-17.4 2.6-2 5.1-4.1 7.4-6.4l.8.9c.4-.8.7-1.6 1-2.4l-.2-.2c1.5-1.5 2.9-3.1 4.3-4.8.5-.6 1-1.2 1.5-1.9.4-.5.7-.9 1.1-1.4.4-.5.7-1 1.1-1.5.3-.5.7-1 1-1.5.3-.5.7-1 1-1.5 2.3-3.5 4.4-7.3 6-11.2l.3-.6c3-7.2 4.5-14.3 4.3-20.5v-.1c0-.4 0-.7-.1-1.1v-.2c0-.3-.1-.7-.1-1v-.2c0-.4-.1-.8-.2-1.2h-1.4l-1 .1h-.2l-1 .1h-.1c-6.1.9-12.8 3.5-19.4 7.9l-.5.2c-3.1 2-6 4.3-8.7 6.8l-1.3 1.2-1.3 1.2c-.4.4-.8.8-1.2 1.3-.4.4-.8.9-1.2 1.3-1 1-1.9 2.1-2.8 3.2-1.3 1.6-2.6 3.2-3.8 4.9l-.1-.1c-.7.4-1.4.9-2.1 1.4l.9.6c-1.9 2.8-3.6 5.6-5 8.6-7.2.9-13.2 5.9-15.4 12.7 3.4-1.9 7.4-2.6 11.2-2.2-.2.5-.3 1.1-.5 1.6l-3.3 3.3c1.7.8 3.3 1.6 4.9 2.7-2 1.5-9.1 6.8-16.2 9.8-.4-3.8-3.8-6.5-7.6-6-.5.1-1.1.2-1.6.4-1.1-2.6-3.6-4.2-6.3-4.2h-.4c.9-2.1-.2-4.6-2.3-5.5-1.6-.7-3.5-.2-4.7 1-1.5-3.2-5.2-4.8-8.5-3.6.6-3.1-.4-6.3-2.7-8.6C50.5 82.9 47 87.9 44 93.1c9.7 1 17.1 9.2 17.1 19z"/><path class="st1" d="M172.1 274v-2c0-.1 0-.3-.1-.4-.1-.2 0-.2-.1-.3-.1-.1-.1-.3-.1-.4l-.1-.3c0-.2-.1-.3-.1-.5l-.1-.3c-.1-.2-.1-.4-.2-.6l-.1-.2c-.1-.2-.2-.5-.3-.7l-.1-.2-.2-.5-.1-.3-.2-.4-.2-.3-.2-.4-.2-.3-.2-.4-.2-.3-.3-.4-.2-.3-.3-.4-.2-.3-.3-.4-.2-.2-.4-.4-.2-.2-.6-.6c-2-1.8-4.3-3.2-6.9-3.9.1-.3.3-.6.4-.9l.1-.2c.1-.3.2-.5.3-.8v-.2c.1-.3.2-.6.2-.9v-.2c0-.3.1-.5.1-.8v-.2c0-.3.1-.6.1-.9v-1.2c0-.3 0-.6-.1-.9v-.2c0-.3-.1-.5-.1-.8v-.2c-.1-.3-.1-.6-.2-.9l-.1-.2c-.1-.3-.2-.5-.2-.8v-.1c-.1-.3-.2-.6-.4-.9l-.1-.2c-.1-.3-.3-.5-.4-.8l-.1-.1c-.2-.3-.3-.6-.5-.8l-.1-.2c-.2-.3-.4-.5-.5-.8v-.1c-.2-.3-.4-.5-.6-.8l-.2-.2-.7-.7c-.4-.3-.7-.6-1.1-.9 2.1-.3 4.1-1.5 5.4-3.2l.2-.2c.1-.2.2-.3.3-.5.1-.2.1-.2.2-.3s.2-.3.2-.4.1-.2.1-.3c0-.1.1-.3.2-.4.1-.1.1-.2.1-.4 0-.1.1-.3.1-.4 0-.1.1-.2.1-.4 0-.1.1-.3.1-.4 0-.1 0-.2.1-.4.1-.1 0-.3 0-.4v-1.7c0-.1 0-.3-.1-.5s0-.2-.1-.4-.1-.3-.1-.4-.1-.2-.1-.4-.1-.3-.2-.4c-.1-.2-.1-.2-.1-.4-.1-.1-.1-.3-.2-.4s-.1-.2-.2-.3c-.1-.1-.2-.3-.3-.4-.1-.1-.1-.2-.2-.3s-.2-.3-.3-.4l-.2-.2-.6-.6c-.2-.2-.4-.3-.6-.5l-.1-.1c-.2-.1-.4-.3-.6-.4l-.6-.3-.2-.1-.6-.3c-.2-.1-.4-.2-.7-.2h-.2c-.5-.1-.9-.2-1.4-.3h-.9c-.7 0-1.4.1-2.1.3.1-.3.1-.6.2-.9 0-.1 0-.2.1-.3s.1-.4.1-.6v-2.9c0-.1 0-.4-.1-.6v-.2c0-.3-.1-.5-.1-.8l-.1-.2c0-.2-.1-.4-.1-.6l-.1-.3c-.1-.2-.1-.4-.2-.6l-.1-.2c-.1-.3-.2-.5-.3-.8l-.1-.2-.3-.6-.1-.3c-.1-.2-.2-.3-.3-.5l-.1-.2c-.1-.2-.3-.5-.5-.7l-.1-.1c-.1-.2-.3-.4-.4-.6l-.2-.2-.4-.5-.2-.2-.6-.6c-1.2-1.1-2.5-2-4-2.6l.5-.3c.3-.2.6-.5.9-.8l.1-.1.5-.4.2-.2.6-.6c.2-.2.4-.5.6-.7l.2-.2.4-.5.2-.3.3-.5.2-.3.3-.5.2-.4.3-.5.2-.4.2-.5.2-.4.2-.5.2-.4.2-.5.1-.4.2-.5.1-.4.1-.5.1-.4c0-.2.1-.3.1-.5l.1-.4c0-.2.1-.3.1-.5s0-.3.1-.4c0-.1 0-.3.1-.5s0-.3 0-.4v-4.1c0-.1 0-.3-.1-.5s0-.3-.1-.4-.1-.3-.1-.5-.1-.3-.1-.4c0-.1-.1-.3-.1-.5l-.1-.4-.1-.5-.1-.4-.2-.5-.2-.4-.2-.5-.2-.4-.2-.5-.2-.4-.2-.5-.2-.4-.3-.5-.2-.4-.3-.4-.2-.4-.3-.4-.3-.3-.4-.5-.3-.3-.5-.5-.2-.2-.7-.7c-.2-.2-.4-.4-.6-.5l-.5-.5c.7-2.1 1.4-4 2.2-6 4.7-12.2 10.7-23.8 18-34.7l7.2 6.1-14.1-11.9c-8 6.1-16.5 11.6-25.4 16.5-2.7 1.5-5.5 2.8-8.3 4-.9-7.6-7.7-13.1-15.4-12.2-1.1.1-2.2.4-3.2.8-2.1-5.2-7.2-8.6-12.8-8.6h-.8c1.7-4.3-.4-9.3-4.7-11-3.3-1.3-7-.5-9.4 2.1-3-6.5-10.5-9.7-17.3-7.3 2-10.3-4.7-20.4-15-22.4-.6-.1-1.1-.2-1.7-.3-1.2 2-2.2 3.9-3.3 6-31.2 60.6-7.4 135 53.2 166.1 13.8 7.1 28.8 11.6 44.3 13.1 4 .4 8 .6 12.1.6 7.3 0 14.5-.6 21.7-1.9 0-.2.1-.4.1-.7v-2c.1.3.2.1.2 0z"/><path transform="rotate(-50.119 162.254 128.738)" class="st1" d="M157.4 121.3h9.8v14.8h-9.8z"/><path class="st5" d="M174.6 125.6c12 10 16.6 26.3 11.6 41.1 18.3-10.1 25-33.1 15-51.4s-33.1-25-51.4-15c-8.4 4.6-14.7 12.1-17.7 21.2 13.6-7.5 30.5-5.9 42.5 4.1z"/><path class="st6" d="M169 132.2c4.8 4 8.9 8.6 12.2 13.9 17.6-7.8 35.9-21.6 51.5-40.3 24.9-29.7 36.4-63.8 32.4-88.5-25.1.5-56.6 17.9-81.4 47.6-15.6 18.7-26 39.1-30.5 57.9 5.7 2.2 11 5.5 15.8 9.4z"/><path class="st7" d="M241.6 45.4c6.2 5.2 12 10.4 17.6 15.7 5.9-15.8 8-31.1 5.9-43.9-12.9.2-27.6 5-42.1 13.6 6.2 4.6 12.4 9.4 18.6 14.6zm-30.5 36.5c-4.8-4-5.5-11.2-1.4-16.1s11.2-5.5 16.1-1.4c4.8 4 5.5 11.2 1.4 16.1-4.1 4.8-11.3 5.4-16.1 1.4z"/><ellipse transform="rotate(-50.111 218.405 73.152)" class="st1" cx="218.4" cy="73.2" rx="7.9" ry="7.9"/><path class="st5" d="M255.9 69c.6-1.2 1.1-2.5 1.6-3.7-14.2-14.8-30.1-26.8-38-32.3-1.1.7-2.2 1.4-3.4 2.2 7.4 5.1 24.8 17.8 39.8 33.8z"/><path class="st7" d="M198.1 56c-2.1 2.6-5.7 3.5-8.8 2.4-.8.9-1.6 1.8-2.5 2.7 5.6 2.9 12.5.6 15.3-5 1.6-3.2 1.7-7 0-10.2l-2.7 2.4c1 2.6.5 5.5-1.3 7.7z"/><path class="st1" d="M198.1 56c1.8-2.1 2.3-5.1 1.4-7.7-3.5 3.1-6.9 6.5-10.2 10.1 3.1 1.1 6.7.1 8.8-2.4z"/><path class="st7" d="M238.4 89.7c1.9-2.3 4.9-3.3 7.9-2.7.6-1 1.3-2 1.9-3.1-6-2-12.4 1.2-14.4 7.1-1.3 3.7-.5 7.9 2 10.9.8-1 1.5-1.9 2.2-2.9-2-2.8-1.8-6.6.4-9.3z"/><path class="st1" d="M238.4 89.7c-2.3 2.7-2.5 6.6-.5 9.5 3-4 5.8-8 8.3-12.1-2.8-.7-5.9.3-7.8 2.6z"/><path class="st5" d="M222.3 120.5c.7-1.6 1.4-3.2 2-4.8-18.1-19-38.5-34.2-48.6-41.3-1.4.9-2.9 1.8-4.3 2.8 9.5 6.6 31.8 22.9 50.9 43.3z"/><path class="st7" d="M177.5 153.8c1.9-2.7 3.7-5.3 5.5-8-8.5-14.5-22.1-22.4-29.1-25.6-2.3 2.2-4.5 4.4-6.8 6.7 6.6 2.9 21.7 11 30.4 26.9z"/><path class="st5" d="M193.7 102.7c-5.5 1.9-13.6 8.5-21.2 17.5S160 138.4 159 144.1c5.5-1.9 13.6-8.5 21.2-17.5s12.6-18.2 13.5-23.9z"/><path class="st0" d="M80.4 164.9l-.6-.9c-.2-.3-.4-.6-.7-.8-.2-.3-.5-.5-.7-.7-.2-.2-.5-.4-.8-.6s-.6-.4-.8-.5c-.3-.2-.6-.3-.9-.4-.6-.2-1.2-.4-1.8-.5-.3-.1-.6-.1-.9-.1h-.9c-.6 0-1.2.1-1.8.3-.3.1-.6.2-.8.3-.3.1-.5.2-.8.4-.5.3-1 .6-1.4 1l-2.5 2.2-.7-3.5c-.1-.4-.2-.7-.3-1.1-.1-.2-.1-.4-.2-.5l-.1-.3v-.1.1l-.1-.2-.3-.6-.1-.3-.1-.2c-.2-.3-.3-.6-.5-.9-.2-.3-.4-.6-.7-.9-.2-.3-.5-.6-.7-.8-.3-.3-.5-.5-.8-.7-.3-.2-.6-.4-.9-.7l-.9-.6c-.3-.2-.7-.3-1-.5-.3-.1-.7-.3-1-.4-.4-.1-.7-.2-1.1-.3-.4-.1-.7-.1-1.1-.2-.4 0-.7-.1-1.1-.1-.4 0-.7 0-1.1.1-.4 0-.7.1-1.1.2l-1.8.3-.4-1.5c-.1-.5-.3-1-.6-1.5s-.6-1-.9-1.4c-.4-.4-.7-.8-1.2-1.2-.4-.4-.9-.7-1.4-1-.3-.1-.5-.3-.8-.4l-.9-.3c-.3-.1-.6-.2-.9-.2-.3-.1-.6-.1-.9-.1-1.3-.1-2.6.1-3.8.5 1.1-.9 2.4-1.6 3.7-1.9.4-.1.7-.1 1.1-.2h1.1c.4 0 .7 0 1.1.1.4.1.7.1 1.1.2.7.2 1.5.5 2.1.9.7.4 1.3.8 1.9 1.4.6.5 1.1 1.1 1.6 1.8s.8 1.4 1.1 2.1l-2.3-1.2c.5-.1 1-.3 1.5-.4.5-.1 1-.2 1.5-.2.5-.1 1-.1 1.5-.1s1 0 1.6.1l1.5.3c.5.1 1 .3 1.5.5s1 .4 1.4.6c.5.2.9.5 1.4.8.4.3.9.6 1.2.9.4.3.8.7 1.1 1.1.4.4.7.8 1 1.2.3.4.6.9.9 1.3.3.5.5 1 .8 1.5l.2.4.1.3.2.6.1.1.1.2v.1l.1.4c.1.3.1.5.2.8.1.5.2 1 .2 1.5L65 159c.7-.5 1.5-.9 2.3-1.2.4-.2.8-.3 1.2-.4.4-.1.8-.2 1.3-.2.4-.1.8-.1 1.3-.1.4 0 .8 0 1.3.1.4 0 .8.2 1.2.2.4.1.8.2 1.2.4.4.2.8.3 1.1.5.4.2.7.4 1 .7.3.2.6.5.9.8.3.3.6.6.8.9.2.3.5.6.7 1 .2.3.4.7.5 1 .2.3.3.7.4 1.1 0 .3.1.7.2 1.1zm36.2 56.3l.2-1 .1-1v-1c0-.3 0-.7-.1-1-.1-.3-.1-.6-.1-1 0-.3-.2-.6-.2-.9l-.3-.9-.4-.9c-.2-.3-.3-.5-.5-.8l-.5-.8-.6-.7-.6-.6c-.2-.2-.5-.4-.7-.6l-.7-.5-.8-.4-.8-.3-1.4-.6.5-1.6c.4-1.2.6-2.5.6-3.8v-.2.1-.7c0-.3 0-.7-.1-1l-.1-.9-.2-.9-.3-.9-.3-.9c-.1-.3-.2-.6-.4-.9l-.5-.8c-.3-.5-.7-1-1.1-1.5-.4-.5-.8-.9-1.2-1.3-.5-.4-1-.8-1.5-1.1-.3-.2-.5-.3-.8-.5-.3-.1-.5-.3-.8-.4l-.9-.4-.9-.3c-.3-.1-.6-.2-.9-.2-.3-.1-.6-.1-.9-.2l-.9-.1h-.9c-.6 0-1.3 0-1.9.1-1.3.2-2.5.5-3.7 1l-2.9 1.1.4-2.9v-.1h-.4v.1l.2-.1.1-.3-.1-.5c0-.2-.1-.4-.2-.5v-.4c.1-.3.1-.6.1-.9 0-.3 0-.6-.1-.9-.1-.3-.1-.6-.2-.9l-.3-.9c-.1-.3-.3-.5-.4-.8-.2-.3-.3-.5-.5-.8-.2-.3-.4-.5-.6-.8l-.7-.7-.7-.6-.8-.6-.9-.5-.9-.4-1-.4-1-.3 1.1-.1 1.1.1c.4 0 .7.1 1.1.2l1.1.3c.3.1.7.3 1 .4l1 .5.9.6c.3.2.6.5.9.7.6.5 1.1 1.1 1.5 1.8.2.3.4.6.6 1 .2.4.4.7.5 1.1.2.4.3.7.4 1.1l.3 1.2c.1.4.2.9.2 1.2v.9h-.1l-.1.1.1.1-2.3-1.5c1.4-.8 3-1.4 4.6-1.8.8-.2 1.7-.3 2.5-.3h1.3l1.2.1c.4 0 .8.1 1.2.2l1.2.3c.4.1.8.2 1.2.4l1.2.5c.4.2.8.4 1.1.6.4.2.7.4 1.1.6.7.5 1.4 1 2 1.5.6.6 1.2 1.2 1.7 1.8.3.3.5.7.8 1 .2.4.5.7.7 1.1l.6 1.1c.2.4.3.8.5 1.2.2.4.3.8.4 1.2l.3 1.2.2 1.2.1 1.3v2.4c-.2 1.6-.6 3.2-1.3 4.8l-.9-2.1 1 .6c.3.2.6.5 1 .7.3.2.6.5.9.8.3.3.5.6.8.9.3.3.5.6.7.9s.4.7.6 1l.4 1.1c.1.4.2.7.4 1.1l.2 1.1.1 1.1v1.1c0 .4-.1.7-.1 1.1 0 .4-.1.7-.2 1.1-.1.4-.2.7-.3 1-.1.3-.3.7-.4 1l-.6.9zm-12.4 36.5v-1.9c-.1-.6-.1-1.2-.3-1.8-.1-.3-.2-.6-.2-.9l-.3-.8-.4-.8-.4-.7c-.2-.2-.3-.4-.5-.7l-.5-.6-.6-.5-.6-.5-.6-.4-.7-.4c-.2-.1-.5-.2-.7-.3l-.7-.3-1.8-.6.5-1.9c.2-.9.4-1.8.4-2.7v-.9l.1-.1h.1s-.1-.1-.1.1l-.1-.4-.1-.8c0-.2-.1-.4-.1-.6 0-.2-.1-.4-.1-.6 0-.2-.1-.4-.2-.6-.1-.4-.2-.9-.4-1.3s-.4-.8-.5-1.2l-.3-.6c-.1-.2-.2-.4-.4-.6l-.4-.6c-.1-.2-.3-.4-.4-.5-.3-.4-.6-.7-.9-1.1-.3-.4-.7-.6-1-1-.3-.3-.7-.6-1.2-.9-.4-.3-.8-.5-1.3-.8-.4-.3-.9-.5-1.4-.7l-1.5-.6c-.5-.2-1-.3-1.6-.5.5-.1 1.1-.3 1.6-.3.6-.1 1.1-.1 1.7-.1h.9c.3 0 .6.1.9.1.6.1 1.1.2 1.7.4.6.2 1.1.4 1.6.7.5.3 1.1.6 1.5.9.5.3 1 .7 1.4 1.1.5.4.9.8 1.3 1.3s.8.9 1.1 1.5c.3.5.6 1.1.9 1.6.3.6.5 1.1.7 1.7l.3.9c.1.3.1.6.2 1 .1.3.1.7.2.9l.1.8v1.9c-.1 1.2-.4 2.5-.8 3.6l-1.2-2.5 1 .5c.3.2.7.4 1 .6.3.2.6.5.9.7.3.2.6.5.8.8.3.3.5.6.7.9l.6.9c.2.3.4.7.5 1s.3.7.4 1l.3 1.1c.1.4.1.7.2 1.1 0 .4.1.7 0 1.1 0 .4 0 .7-.1 1.1-.1.4-.1.7-.2 1-.1.3-.2.7-.3 1-.1.3-.3.6-.4.9.1.4-.1.7-.3.9z"/><path class="st8" d="M61.1 112.1c0 1.2-.1 2.5-.4 3.7 6.8-2.4 14.3.8 17.3 7.3 3.2-3.4 8.6-3.6 12-.4 2.6 2.4 3.4 6.1 2.1 9.4h.8c5.6 0 10.7 3.4 12.8 8.6 7.2-2.6 15.2 1 17.8 8.2.4 1 .6 2.1.8 3.2 2.8-1.2 5.6-2.6 8.3-4l-.4-.2h-.3l-.6-.2h-.1l-.6-.1-.6-.1h-.5l-.1.5v.5h-1.3v-.9s0-.1-.1-.1h-.8v-.1c0-.1.5-.1.5-.2s.2-.1.2-.2.1-.2.1-.2c0-.1.1-.1 0-.1s0-.2 0-.4v-.5c0-.1 0-.1-.1-.2l-.1-.2-.1-.2-.1-.2-.1-.2-.1-.2-.1-.2-.1-.2-.1-.2-.1-.2-.1-.2-.1-.2-.1-.2-.1-.1-.2-.2-.1-.1-.2-.2-.1-.1-.2-.2-.1-.1-.3-.2-.3-.3c-.6-.4-1.2-.8-2-1-.2-.1-.5-.1-.7-.2.8-.5 1.4-1.3 1.7-2.1 0-.1.1-.3.1-.4v-1.9c0-.1 0-.2-.1-.3v.2c0-.1-.1-.2-.1-.2v-.1c0-.1-.1-.2-.1-.3-.1-.1-.1-.2-.2-.3l-.1-.1-.1-.2-.1-.1-.2-.2-.1-.1-.2-.2-.3-.2-.1-.1-.2-.2-.1-.1-.2-.1-.1-.1-.4-.1-.3-.1h-.4.2c-.1 0-.2.6-.3.6s0 .6 0 .6 0-.6-.1-.6-.2-.3-.2-.3c-.1 0-.1-.2-.1-.2l-.2-.1h-.4l-.3.1h-.1l-.2.1h-.1l-.3.1-.3.2h-.1l-.2.1h-.1c-.5-3-3-5.4-6-5.7l-.5-.6c.2-.4.3-.7.5-1.1 0-.1.1-.3.1-.4v-.1l.1-.3v-.2l.1-.3v-2.4c0-.2 0-.4-.1-.6v-.1c0-.2-.1-.4-.1-.6v-.1c0-.2-.1-.4-.2-.6-.1-.2-.1-.4-.2-.6l-.1-.1c-.1-.2-.2-.4-.2-.6v-.1c-.1-.2-.2-.3-.3-.5l-.1-.1c-.1-.2-.2-.4-.3-.5l-.1-.1c-.1-.2-.2-.3-.3-.5v-.1c-.1-.2-.3-.3-.4-.5l-.1-.1c-.2-.2-.3-.3-.5-.4-.2-.1-.3-.3-.5-.4l.2-.1c-.2-.1-.3-.3-.5-.4l-.1-.1-.5-.3h-.1l-.6-.3-.1-.1-.6-.3c1.1-4.8 2.9-9.3 5.5-13.4 1.2 1.4 2.2 2.9 3.1 4.5.9-1.3 1.8-2.6 2.7-4l-.4-.2 1.8-.9c1.1 3.7 1.1 7.7-.2 11.4 6.3-3.5 10.1-10.2 9.7-17.4 2.6-2 5.1-4.1 7.4-6.4l.8.9c.4-.8.7-1.6 1-2.4l-.2-.2c1.5-1.5 2.9-3.1 4.3-4.8.5-.6 1-1.2 1.5-1.9.4-.5.7-.9 1.1-1.4.4-.5.7-1 1.1-1.5.3-.5.7-1 1-1.5.3-.5.7-1 1-1.5 2.3-3.5 4.4-7.3 6-11.2l.3-.6c3-7.2 4.5-14.3 4.3-20.5v-.1c0-.4 0-.7-.1-1.1v-.2c0-.3-.1-.7-.1-1v-.2c0-.4-.1-.8-.2-1.2h-1.4l-1 .1h-.2l-1 .1h-.1c-6.1.9-12.8 3.5-19.4 7.9l-.5.2c-3.1 2-6 4.3-8.7 6.8l-1.3 1.2-1.3 1.2c-.4.4-.8.8-1.2 1.3-.4.4-.8.9-1.2 1.3-1 1-1.9 2.1-2.8 3.2-1.3 1.6-2.6 3.2-3.8 4.9l-.1-.1c-.7.4-1.4.9-2.1 1.4l.9.6c-1.9 2.8-3.6 5.6-5 8.6-7.2.9-13.2 5.9-15.4 12.7 3.4-1.9 7.4-2.6 11.2-2.2-.2.5-.3 1.1-.5 1.6l-3.3 3.3c1.7.8 3.3 1.6 4.9 2.7-2 1.5-9.1 6.8-16.2 9.8-.4-3.8-3.8-6.5-7.6-6-.5.1-1.1.2-1.6.4-1.1-2.6-3.6-4.2-6.3-4.2h-.4c.9-2.1-.2-4.6-2.3-5.5-1.6-.7-3.5-.2-4.7 1-1.5-3.2-5.2-4.8-8.5-3.6.6-3.1-.4-6.3-2.7-8.6C50.5 82.9 47 87.9 44 93.1c9.7 1 17.1 9.2 17.1 19z"/></svg>