<svg xmlns="http://www.w3.org/2000/svg" viewBox="0 0 100 100"><defs><style>.cls-1{fill:#0b77bd;}</style></defs><title>Artboard 26</title><g id="Layer_1" data-name="Layer 1"><path class="cls-1" d="M30.83,18.49a1.5,1.5,0,0,1-1.48-1.29A10.12,10.12,0,0,1,49.11,13a1.5,1.5,0,0,1-2.89.82,7.12,7.12,0,0,0-13.9,3A1.5,1.5,0,0,1,31,18.47Z"/><path class="cls-1" d="M64.27,42.89a1.5,1.5,0,0,1,0-3,11.13,11.13,0,1,0,0-22.27,1.5,1.5,0,1,1,0-3,14.13,14.13,0,1,1,0,28.27Z"/><path class="cls-1" d="M54.22,42.89H35.92a1.5,1.5,0,1,1,0-3h18.3a1.5,1.5,0,0,1,0,3Z"/><path class="cls-1" d="M64.29,42.89H54.22a1.5,1.5,0,0,1,0-3H64.29a1.5,1.5,0,0,1,0,3Z"/><path class="cls-1" d="M35.92,42.89a14.23,14.23,0,0,1-5.68-27.28,1.5,1.5,0,0,1,1.2,2.75,11.23,11.23,0,0,0,4.48,21.53,1.5,1.5,0,0,1,0,3Z"/><path class="cls-1" d="M68.49,18.35h-.06A1.5,1.5,0,0,1,67,16.79c0-.18,0-.37,0-.55A13.22,13.22,0,0,0,43.13,8.41a1.5,1.5,0,1,1-2.41-1.78A16.22,16.22,0,0,1,70,16.24q0,.34,0,.67A1.5,1.5,0,0,1,68.49,18.35Z"/><path class="cls-1" d="M50,62.43a1.5,1.5,0,0,1-1.5-1.5V41.39a1.5,1.5,0,0,1,3,0V60.93A1.5,1.5,0,0,1,50,62.43Z"/><path class="cls-1" d="M84.92,62.43a1.5,1.5,0,0,1-1.5-1.5V52.66H16.67v8.27a1.5,1.5,0,0,1-3,0V51.16a1.5,1.5,0,0,1,1.5-1.5H84.92a1.5,1.5,0,0,1,1.5,1.5v9.77A1.5,1.5,0,0,1,84.92,62.43Z"/><path class="cls-1" d="M60.71,75H39.38a4.5,4.5,0,0,1-4.5-4.5V63.93a4.5,4.5,0,0,1,4.5-4.5H60.71a4.5,4.5,0,0,1,4.5,4.5v6.53A4.5,4.5,0,0,1,60.71,75ZM39.38,62.43a1.5,1.5,0,0,0-1.5,1.5v6.53a1.5,1.5,0,0,0,1.5,1.5H60.71a1.5,1.5,0,0,0,1.5-1.5V63.93a1.5,1.5,0,0,0-1.5-1.5Z"/><path class="cls-1" d="M41.3,68.7a1.5,1.5,0,0,1-1.06-2.56,2.06,2.06,0,0,1,.23-.19l.26-.14.28-.08a1.42,1.42,0,0,1,.58,0l.28.08.26.14a2.06,2.06,0,0,1,.23.19,1.5,1.5,0,0,1,.44,1.06,1.32,1.32,0,0,1,0,.29,1.91,1.91,0,0,1-.22.54,2,2,0,0,1-.19.23,2.06,2.06,0,0,1-.23.19,1.24,1.24,0,0,1-.26.13,1.31,1.31,0,0,1-.28.09A1.43,1.43,0,0,1,41.3,68.7Z"/><path class="cls-1" d="M59.2,68.7H46.7a1.5,1.5,0,0,1,0-3H59.2a1.5,1.5,0,0,1,0,3Z"/><path class="cls-1" d="M60.71,87.49H39.38a4.5,4.5,0,0,1-4.5-4.5V76.46a4.5,4.5,0,0,1,4.5-4.5H60.71a4.5,4.5,0,0,1,4.5,4.5V83A4.5,4.5,0,0,1,60.71,87.49ZM39.38,75a1.5,1.5,0,0,0-1.5,1.5V83a1.5,1.5,0,0,0,1.5,1.5H60.71a1.5,1.5,0,0,0,1.5-1.5V76.46a1.5,1.5,0,0,0-1.5-1.5Z"/><path class="cls-1" d="M41.3,81.23a1.36,1.36,0,0,1-.29,0,1.6,1.6,0,0,1-.54-.23,1.27,1.27,0,0,1-.23-.18,1.52,1.52,0,0,1-.44-1.06,1.49,1.49,0,0,1,0-.3,2.74,2.74,0,0,1,.08-.28c0-.09.09-.17.14-.26a1.94,1.94,0,0,1,.19-.22,1.49,1.49,0,0,1,1.35-.41.91.91,0,0,1,.28.08l.26.14a1.31,1.31,0,0,1,.23.19,1.94,1.94,0,0,1,.19.22,1.64,1.64,0,0,1,.13.26,1.42,1.42,0,0,1,.12.58,1.52,1.52,0,0,1-.44,1.06,1.27,1.27,0,0,1-.23.18,1.6,1.6,0,0,1-.54.23A1.43,1.43,0,0,1,41.3,81.23Z"/><path class="cls-1" d="M59.2,81.23H46.7a1.5,1.5,0,0,1,0-3H59.2a1.5,1.5,0,0,1,0,3Z"/><path class="cls-1" d="M60.71,100H39.38a4.5,4.5,0,0,1-4.5-4.5V89a4.5,4.5,0,0,1,4.5-4.5H60.71a4.5,4.5,0,0,1,4.5,4.5v6.53A4.5,4.5,0,0,1,60.71,100ZM39.38,87.49a1.5,1.5,0,0,0-1.5,1.5v6.53a1.5,1.5,0,0,0,1.5,1.5H60.71a1.5,1.5,0,0,0,1.5-1.5V89a1.5,1.5,0,0,0-1.5-1.5Z"/><path class="cls-1" d="M41.3,93.75l-.29,0a1.63,1.63,0,0,1-.54-.23,2,2,0,0,1-.23-.18,1.54,1.54,0,0,1-.44-1.07,1.46,1.46,0,0,1,0-.29,2.74,2.74,0,0,1,.08-.28,2.19,2.19,0,0,1,.14-.26,2,2,0,0,1,.19-.23,2,2,0,0,1,.23-.18,1.6,1.6,0,0,1,.54-.23,1.89,1.89,0,0,1,.58,0,1.6,1.6,0,0,1,.54.23,2,2,0,0,1,.23.18,2,2,0,0,1,.19.23,1.29,1.29,0,0,1,.13.26,1.48,1.48,0,0,1,.09.28,1.46,1.46,0,0,1,0,.29,1.52,1.52,0,0,1-.44,1.07,2,2,0,0,1-.23.18,1.63,1.63,0,0,1-.54.23Z"/><path class="cls-1" d="M59.2,93.75H46.7a1.5,1.5,0,0,1,0-3H59.2a1.5,1.5,0,1,1,0,3Z"/><path class="cls-1" d="M25.88,75H4.54A4.5,4.5,0,0,1,0,70.46V63.93a4.5,4.5,0,0,1,4.5-4.5H25.88a4.5,4.5,0,0,1,4.5,4.5v6.53A4.5,4.5,0,0,1,25.88,75ZM4.54,62.43A1.5,1.5,0,0,0,3,63.93v6.53A1.5,1.5,0,0,0,4.54,72H25.88a1.5,1.5,0,0,0,1.5-1.5V63.93a1.5,1.5,0,0,0-1.5-1.5Z"/><path class="cls-1" d="M6.47,68.7a1.4,1.4,0,0,1-.58-.12,1.24,1.24,0,0,1-.26-.13,2.17,2.17,0,0,1-.23-.19A2,2,0,0,1,5.22,68a1.33,1.33,0,0,1-.14-.26A.9.9,0,0,1,5,67.49a1.4,1.4,0,0,1,0-.58.89.89,0,0,1,.08-.28,1.09,1.09,0,0,1,.14-.26,1.44,1.44,0,0,1,.18-.23,2.17,2.17,0,0,1,.23-.19l.26-.14.28-.08a1.46,1.46,0,0,1,.59,0l.28.08.26.14a1.36,1.36,0,0,1,.22.19,1.06,1.06,0,0,1,.19.23,1.09,1.09,0,0,1,.14.26,1.28,1.28,0,0,1,.09.28,1.4,1.4,0,0,1,0,.58,1.29,1.29,0,0,1-.09.28,1.5,1.5,0,0,1-.33.49A1.47,1.47,0,0,1,6.47,68.7Z"/><path class="cls-1" d="M24.36,68.7H11.86a1.5,1.5,0,0,1,0-3h12.5a1.5,1.5,0,1,1,0,3Z"/><path class="cls-1" d="M25.88,87.49H4.54A4.5,4.5,0,0,1,0,83V76.46A4.5,4.5,0,0,1,4.54,72H25.88a4.5,4.5,0,0,1,4.5,4.5V83A4.5,4.5,0,0,1,25.88,87.49ZM4.54,75A1.5,1.5,0,0,0,3,76.46V83a1.5,1.5,0,0,0,1.5,1.5H25.88a1.5,1.5,0,0,0,1.5-1.5V76.46a1.5,1.5,0,0,0-1.5-1.5Z"/><path class="cls-1" d="M6.47,81.23a1.42,1.42,0,0,1-.58-.12,1.76,1.76,0,0,1-.49-.32,2.12,2.12,0,0,1-.18-.23,1.34,1.34,0,0,1-.14-.26A.89.89,0,0,1,5,80a1.47,1.47,0,0,1,0-.29,1.49,1.49,0,0,1,0-.3,1,1,0,0,1,.08-.28,1.71,1.71,0,0,1,.14-.26,2,2,0,0,1,.18-.22,1.35,1.35,0,0,1,.23-.19l.26-.14a1,1,0,0,1,.28-.08,1.49,1.49,0,0,1,1.35.41,1.29,1.29,0,0,1,.19.22,1.71,1.71,0,0,1,.14.26,1.44,1.44,0,0,1,.09.87,1.28,1.28,0,0,1-.09.28,1.34,1.34,0,0,1-.14.26,1.37,1.37,0,0,1-.19.23A1.48,1.48,0,0,1,6.47,81.23Z"/><path class="cls-1" d="M24.36,81.23H11.86a1.5,1.5,0,0,1,0-3h12.5a1.5,1.5,0,1,1,0,3Z"/><path class="cls-1" d="M25.88,100H4.54A4.5,4.5,0,0,1,0,95.52V89a4.5,4.5,0,0,1,4.5-4.5H25.88a4.5,4.5,0,0,1,4.5,4.5v6.53A4.5,4.5,0,0,1,25.88,100ZM4.54,87.49A1.5,1.5,0,0,0,3,89v6.53A1.5,1.5,0,0,0,4.54,97H25.88a1.5,1.5,0,0,0,1.5-1.5V89a1.5,1.5,0,0,0-1.5-1.5Z"/><path class="cls-1" d="M6.47,93.75l-.3,0a1.52,1.52,0,0,1-.28-.09,1.31,1.31,0,0,1-.26-.14,2.08,2.08,0,0,1-.23-.18,2,2,0,0,1-.18-.23,1.32,1.32,0,0,1-.14-.26A1,1,0,0,1,5,92.55a1.49,1.49,0,0,1,0-.3,1.55,1.55,0,0,1,.43-1.06,1.74,1.74,0,0,1,.49-.32,1.46,1.46,0,0,1,1.63.32,1.46,1.46,0,0,1,.33,1.64,1.49,1.49,0,0,1-.33.49A1.51,1.51,0,0,1,6.47,93.75Z"/><path class="cls-1" d="M24.36,93.75H11.86a1.5,1.5,0,0,1,0-3h12.5a1.5,1.5,0,1,1,0,3Z"/><path class="cls-1" d="M95.54,75H74.21a4.5,4.5,0,0,1-4.5-4.5V63.93a4.5,4.5,0,0,1,4.5-4.5H95.54a4.5,4.5,0,0,1,4.5,4.5v6.53A4.5,4.5,0,0,1,95.54,75ZM74.21,62.43a1.5,1.5,0,0,0-1.5,1.5v6.53a1.5,1.5,0,0,0,1.5,1.5H95.54a1.5,1.5,0,0,0,1.5-1.5V63.93a1.5,1.5,0,0,0-1.5-1.5Z"/><path class="cls-1" d="M76.13,68.7a1.5,1.5,0,0,1-1.5-1.5,1.5,1.5,0,0,1,.44-1.06,1.55,1.55,0,0,1,2.12,0,1.5,1.5,0,0,1,.44,1.06,1.51,1.51,0,0,1-.44,1.06A1.49,1.49,0,0,1,76.13,68.7Z"/><path class="cls-1" d="M94,68.7H81.53a1.5,1.5,0,0,1,0-3H94a1.5,1.5,0,0,1,0,3Z"/><path class="cls-1" d="M95.54,87.49H74.21a4.5,4.5,0,0,1-4.5-4.5V76.46a4.5,4.5,0,0,1,4.5-4.5H95.54a4.5,4.5,0,0,1,4.5,4.5V83A4.5,4.5,0,0,1,95.54,87.49ZM74.21,75a1.5,1.5,0,0,0-1.5,1.5V83a1.5,1.5,0,0,0,1.5,1.5H95.54A1.5,1.5,0,0,0,97,83V76.46a1.5,1.5,0,0,0-1.5-1.5Z"/><path class="cls-1" d="M76.13,81.23a1.5,1.5,0,0,1-1.5-1.5,1.48,1.48,0,0,1,.44-1.06,1.52,1.52,0,0,1,1.36-.41,1,1,0,0,1,.28.08l.26.14a1.25,1.25,0,0,1,.22.19,1.5,1.5,0,0,1,.44,1.06,1.47,1.47,0,0,1,0,.29,1.26,1.26,0,0,1-.08.28,1.49,1.49,0,0,1-.33.49A1.21,1.21,0,0,1,77,81a1.65,1.65,0,0,1-.26.14,1.42,1.42,0,0,1-.58.12Z"/><path class="cls-1" d="M94,81.23H81.53a1.5,1.5,0,0,1,0-3H94a1.5,1.5,0,0,1,0,3Z"/><path class="cls-1" d="M95.54,100H74.21a4.5,4.5,0,0,1-4.5-4.5V89a4.5,4.5,0,0,1,4.5-4.5H95.54A4.5,4.5,0,0,1,100,89v6.53A4.5,4.5,0,0,1,95.54,100ZM74.21,87.49a1.5,1.5,0,0,0-1.5,1.5v6.53a1.5,1.5,0,0,0,1.5,1.5H95.54a1.5,1.5,0,0,0,1.5-1.5V89a1.5,1.5,0,0,0-1.5-1.5Z"/><path class="cls-1" d="M76.13,93.76a1.53,1.53,0,0,1-1.06-.45,1.48,1.48,0,0,1-.44-1.06,1.46,1.46,0,0,1,0-.29,1.48,1.48,0,0,1,.09-.28,1,1,0,0,1,.14-.26,1.31,1.31,0,0,1,.18-.23,1.57,1.57,0,0,1,2.12,0,1.53,1.53,0,0,1,.44,1.06,1.49,1.49,0,0,1,0,.3,1.44,1.44,0,0,1-.08.28,2.16,2.16,0,0,1-.14.26,1.38,1.38,0,0,1-.19.22,1.29,1.29,0,0,1-.22.19,1.65,1.65,0,0,1-.26.14,1.4,1.4,0,0,1-.58.12Z"/><path class="cls-1" d="M94,93.75H81.53a1.5,1.5,0,0,1,0-3H94a1.5,1.5,0,0,1,0,3Z"/></g></svg>