<?xml version="1.0" encoding="utf-8"?>
<!-- Generator: Adobe Illustrator 18.0.0, SVG Export Plug-In . SVG Version: 6.00 Build 0)  -->
<!DOCTYPE svg PUBLIC "-//W3C//DTD SVG 1.0//EN" "http://www.w3.org/TR/2001/REC-SVG-20010904/DTD/svg10.dtd">
<svg version="1.0" id="Layer_1" xmlns="http://www.w3.org/2000/svg" xmlns:xlink="http://www.w3.org/1999/xlink" x="0px" y="0px"
	 viewBox="0 0 100 100" enable-background="new 0 0 100 100" xml:space="preserve">
<path id="linux-os-icon" fill="#3B5A86" d="M86.8,79.4c-2.4-1.9-1.4-6-3.9-8c0,0,0,0,0,0c2.4-14-4.3-26.4-12.2-34.3
	C64,30.4,66.2,24,66.2,18.4C66.2,9.4,62.4,0,51,0C38.7,0,35.4,9.9,35.3,15.6c-0.3,13.6,2.8,17.1-5.4,27c-9.6,11.6-11,23.2-8.9,29.4
	c0,0,0,0,0,0c-1,1.2-2.4,2.4-5,3.5c-7.1,3-1.9,8-3.8,11.6c-2.3,4.1,0.2,9,6.4,8.5c3.9-0.3,8.1,1.3,11.7,2.9
	c5.1,2.2,9.6,0.1,11.4-3.4c5.9-1.4,13.2-1.2,19.1,0.2c1.8,4.9,8.9,6.9,13.9,1.6c2.2-2.3,5.6-5.9,9.6-7.2
	C89,88.2,89.8,81.8,86.8,79.4z M47.6,35.8c-1.4,0-2.5-1.1-4.3-2.4c-2.3-1.6-4.6-2.6-4.5-4.3c0-1.2,1.6-1.5,3.7-2.8
	c2.3-1.4,3.1-2.8,5.3-2.8c2.3,0,3,1.1,6,2.4c3,1.3,5.1,1.8,5.1,3.2c0,1.5-3.2,2.5-5,3.6C51.4,34.3,50.1,35.8,47.6,35.8
	C45.1,35.8,48.9,35.8,47.6,35.8z M54.7,14c3.8,0.6,4.2,7,2.4,10.2c-0.5-0.2-0.8-0.3-1.5-0.6c0.8-2.3,0.8-6-1.9-6.2
	c-1.7-0.2-2.8,2-3,3.8c-0.7-0.3-1.4-0.5-2.2-0.5C48.8,16.9,51.3,13.5,54.7,14z M40.1,15.4c2.9-0.7,4.6,2.6,4.6,6
	c-0.5,0.2-0.9,0.5-1.3,0.8c-0.2-1.4-0.8-3.7-2.5-3.2c-1.8,0.5-1.5,4.5-0.5,5.3c-0.4,0.2-0.9,0.5-1.3,0.7
	C37.3,22,37.3,16.1,40.1,15.4z M31.1,95.6c-8.4-3.7-11.3-2.9-12.9-2.9c-3.3,0-4.4-2.4-3.2-4.7c1.1-1.9,0.7-4,0.5-5.6
	c-0.4-2.5-0.5-3.3,2-4.4c3.5-1.4,5-3.3,6.2-4.7c3.2-3.9,6.5,2.2,9.2,7.7c1.7,3.5,5.2,5.3,6.2,9.3C40.2,94,36.1,97.8,31.1,95.6z
	 M61,87.8c-5.9,2.8-13.5,4.1-19.1,1.2c-0.8-2.3-2.2-3.9-3.6-5.4l0,0c2.3-0.6,4-3.4,2-6.2c-2.2-3-6.7-5.1-11.2-8.5
	c-4.2-3.2-5.6-11,0.2-19.8c-2.8,7.8-1.2,14.9,0.2,17c0.3-4.1,0.6-11,6.4-19.2c2.9-4.2,3-9.7,3-13.1c0.9,0.6,1.8,1.1,2.7,1.8
	c2,1.4,3.6,3,5.9,3h0c3.5,0,5.4-1.9,8.1-3.6c1-0.6,2.6-1.3,4-2.1c2.2,10.3,11.5,22.7,12,29.8c2.1-4.3-0.6-14.6-0.6-14.6
	c3.6,5.4,3.9,9.8,4.1,15.3c2.5,1,5.2,3.6,5.5,7.1c-0.3-0.1-0.7-0.1-1-0.1c-0.5-3.8-11.2-9.5-12.1-2.2c-5.1,0.8-3.2,8.6-4.3,13.7
	C62.5,84,61.6,85.9,61,87.8z M81.8,87.6c-4.2,1.6-7.1,4.9-9,7c-3.8,4-8.8,2.1-9.3-1.7c-0.6-4,1.5-6.2,2.4-10.7
	c0.8-4.1-0.1-10.4,1.8-11.1c1.3,7.3,8.9,4.2,10.6,2.2c2.8,0,3.1,0.9,3.7,3.5c0.4,1.6,0.9,3,2.5,4.5C86.3,83.3,85.7,86.1,81.8,87.6z
	 M47.5,33.4c-2.8,0-4.9-1.8-6.6-3.2c-0.9-0.7,0.2-2,1.1-1.3c1.7,1.4,3.3,2.8,5.5,2.8c2.6,0,4.9-2.2,8-3.4c1.1-0.4,1.7,1.2,0.6,1.6
	C53.1,31.1,50.7,33.4,47.5,33.4z"/>
</svg>
